<svg width="113" height="113" viewBox="0 0 113 113" fill="none" xmlns="http://www.w3.org/2000/svg">
<g clip-path="url(#clip0_3382_83)">
<path d="M102.911 46.4107H68.6071C67.4928 46.4107 66.5893 45.5072 66.5893 44.3929V10.0893C66.5893 4.51752 62.0718 0 56.5 0C50.9282 0 46.4107 4.51752 46.4107 10.0893V44.3929C46.4107 45.5072 45.5072 46.4107 44.3929 46.4107H10.0893C4.51752 46.4107 0 50.9282 0 56.5C0 62.0718 4.51752 66.5893 10.0893 66.5893H44.3929C45.5072 66.5893 46.4107 67.4928 46.4107 68.6071V102.911C46.4107 108.482 50.9282 113 56.5 113C62.0718 113 66.5893 108.482 66.5893 102.911V68.6071C66.5893 67.4928 67.4928 66.5893 68.6071 66.5893H102.911C108.482 66.5893 113 62.0718 113 56.5C113 50.9282 108.482 46.4107 102.911 46.4107Z" fill="white"/>
</g>
<defs>
<clipPath id="clip0_3382_83">
<rect width="113" height="113" fill="white"/>
</clipPath>
</defs>
</svg>
