<svg xmlns="http://www.w3.org/2000/svg" width="56.508" height="56.508" viewBox="0 0 56.508 56.508">
  <path id="Call" d="M136.136,370.453q-.24-.719-3.051-2.126c-.51-.293-1.229-.7-2.168-1.206s-1.784-.97-2.549-1.4-1.476-.848-2.145-1.244c-.107-.084-.441-.316-1-.708a12.617,12.617,0,0,0-1.426-.86l-1.141-.281a3.333,3.333,0,0,0-2.008,1.141,20.467,20.467,0,0,0-2.206,2.488,24.363,24.363,0,0,1-2.126,2.5,3.069,3.069,0,0,1-1.849,1.145l-.9-.205-.822-.342-.966-.563-.761-.46A39.827,39.827,0,0,1,94.6,351.918l-.464-.768-.563-.959-.339-.825-.2-.9a3.045,3.045,0,0,1,1.145-1.845,23.425,23.425,0,0,1,2.488-2.126,19.728,19.728,0,0,0,2.488-2.214,3.319,3.319,0,0,0,1.145-2l-.281-1.145a11.178,11.178,0,0,0-.863-1.426c-.388-.563-.62-.9-.7-1-.4-.673-.814-1.385-1.244-2.153s-.894-1.613-1.4-2.545-.909-1.662-1.2-2.164q-1.409-2.813-2.13-3.051l-.841-.125a13.561,13.561,0,0,0-2.83.4,16.3,16.3,0,0,0-2.75.844q-2.008.85-4.253,4.9a15.545,15.545,0,0,0-2.046,7.467,15.255,15.255,0,0,0,.141,2.1,17.144,17.144,0,0,0,.5,2.309q.365,1.284.582,1.906c.148.418.422,1.156.825,2.229s.643,1.727.723,1.967a36.4,36.4,0,0,0,3.328,7.022A59.654,59.654,0,0,0,94.5,368.43a58.981,58.981,0,0,0,10.616,8.646,36.063,36.063,0,0,0,7.022,3.332c.243.08.9.327,1.967.727s1.814.673,2.229.822,1.05.342,1.906.582a17.832,17.832,0,0,0,2.309.5,15.857,15.857,0,0,0,2.107.137,15.578,15.578,0,0,0,7.463-2.042q4.057-2.248,4.9-4.256a16,16,0,0,0,.841-2.75,13.325,13.325,0,0,0,.4-2.826l-.122-.848Z" transform="translate(-79.75 -326.669)" fill="#fff"/>
</svg>
