<svg xmlns="http://www.w3.org/2000/svg" width="59.878" height="47.048" viewBox="0 0 59.878 47.048">
  <path id="Email" d="M135.841,289.505q-10.96,7.417-16.641,11.525c-1.267.939-2.3,1.666-3.089,2.195a19.553,19.553,0,0,1-3.157,1.6,9.673,9.673,0,0,1-3.674.818h-.068a9.643,9.643,0,0,1-3.674-.818,19.453,19.453,0,0,1-3.161-1.6c-.787-.529-1.818-1.255-3.089-2.195q-4.513-3.3-16.607-11.525a17.539,17.539,0,0,1-3.374-2.906V313.13a5.364,5.364,0,0,0,5.344,5.348h49.186a5.364,5.364,0,0,0,5.348-5.348V286.6a18.546,18.546,0,0,1-3.343,2.906Zm1.754-16.5a5.149,5.149,0,0,0-3.758-1.571H84.651a4.756,4.756,0,0,0-3.96,1.738,6.735,6.735,0,0,0-1.385,4.34,7.808,7.808,0,0,0,1.837,4.564,16.472,16.472,0,0,0,3.91,3.857q1.135.8,6.847,4.762t8.756,6.1c.221.156.7.495,1.419,1.016s1.328.947,1.807,1.274,1.057.688,1.738,1.088a10.228,10.228,0,0,0,1.921.9,5.255,5.255,0,0,0,1.67.3h.068a5.273,5.273,0,0,0,1.67-.3,10.34,10.34,0,0,0,1.921-.9c.677-.4,1.259-.765,1.738-1.088s1.08-.746,1.8-1.274,1.2-.86,1.419-1.016q3.075-2.134,15.641-10.859a15.9,15.9,0,0,0,4.074-4.108,8.846,8.846,0,0,0,1.639-5.044,5.123,5.123,0,0,0-1.59-3.777Z" transform="translate(-79.307 -271.43)" fill="#fff"/>
</svg>
