<svg xmlns="http://www.w3.org/2000/svg" width="512" height="360" viewBox="0 0 512 360">
  <g id="email" transform="translate(0 -76)">
    <g id="Group_5526" data-name="Group 5526">
      <g id="Group_5525" data-name="Group 5525">
        <path id="Path_7072" data-name="Path 7072" d="M331.756,277.251l-42.881,43.026c-17.389,17.45-47.985,17.826-65.75,0l-42.883-43.026L26.226,431.767A44.559,44.559,0,0,0,45,436H467a44.518,44.518,0,0,0,18.77-4.232Z" fill="red"/>
      </g>
    </g>
    <g id="Group_5528" data-name="Group 5528">
      <g id="Group_5527" data-name="Group 5527">
        <path id="Path_7073" data-name="Path 7073" d="M467,76H45a44.543,44.543,0,0,0-18.772,4.233L190.8,245.356c.011.011.024.013.035.024a.05.05,0,0,1,.013.026l53.513,53.69c5.684,5.684,17.586,5.684,23.27,0l53.5-53.681a.2.2,0,0,1,.024-.035.2.2,0,0,0,.035-.024L485.77,80.232A44.518,44.518,0,0,0,467,76Z" fill="red"/>
      </g>
    </g>
    <g id="Group_5530" data-name="Group 5530">
      <g id="Group_5529" data-name="Group 5529">
        <path id="Path_7074" data-name="Path 7074" d="M4.786,101.212A44.448,44.448,0,0,0,0,121V391a44.434,44.434,0,0,0,4.785,19.788L159.068,256.005Z" fill="red"/>
      </g>
    </g>
    <g id="Group_5532" data-name="Group 5532">
      <g id="Group_5531" data-name="Group 5531">
        <path id="Path_7075" data-name="Path 7075" d="M507.214,101.21l-154.281,154.8L507.214,410.79A44.45,44.45,0,0,0,512,391V121A44.45,44.45,0,0,0,507.214,101.21Z" fill="red"/>
      </g>
    </g>
  </g>
</svg>
