<svg xmlns="http://www.w3.org/2000/svg" width="65" height="65" viewBox="0 0 65 65">
  <g id="Facebook" transform="translate(6192 9630)">
    <g id="Group_8363" data-name="Group 8363" transform="translate(109)" opacity="0">
      <circle id="Ellipse_79" data-name="Ellipse 79" cx="32.5" cy="32.5" r="32.5" transform="translate(-6301 -9630)" fill="#fff"/>
    </g>
    <path id="Path_19679" data-name="Path 19679" d="M4.21-21.006H9.35V-33.527h3.991L14-38.5H9.35v-3.445a2.8,2.8,0,0,1,.437-1.75,2.539,2.539,0,0,1,2.023-.656h2.624v-4.429A27.081,27.081,0,0,0,10.607-49,6.337,6.337,0,0,0,5.96-47.278a6.483,6.483,0,0,0-1.75,4.839V-38.5H0v4.976H4.21Z" transform="translate(-6167 -9562)" fill="red"/>
  </g>
</svg>
