<?xml version="1.0" encoding="UTF-8"?> <svg xmlns="http://www.w3.org/2000/svg" width="197" height="149" viewBox="0 0 197 149"><g id="Group_467" data-name="Group 467" transform="translate(-1234 889)"><rect id="Rectangle_38" data-name="Rectangle 38" width="197" height="149" rx="2" transform="translate(1234 -889)" fill="#fff"></rect><g id="surface1" transform="translate(1262 -838)"><path id="Path_260" data-name="Path 260" d="M108.255,17.786c0-.35.005-.6,0-.857-.018-.6-.321-.923-.876-.928q-1.4-.009-2.789,0-.9,0-.907.973,0,7.026,0,14.049c0,.649.305.972.907.976.866,0,1.733,0,2.6,0,.807,0,1.065-.274,1.066-1.135,0-2.68.035-5.36-.02-8.039a2.415,2.415,0,0,1,.794-1.966,3.87,3.87,0,0,1,3.19-1.24,16.6,16.6,0,0,0,1.882.071c.533,0,.821-.312.836-.883.022-.743.021-1.488,0-2.233a.8.8,0,0,0-.808-.876,7.97,7.97,0,0,0-4.821,1.323c-.325.226-.643.464-1.057.763m-58.19,6.183h-.024q0,3.472,0,6.944c0,.818.256,1.086,1.025,1.088q1.243,0,2.488,0c.788,0,1.036-.267,1.036-1.116,0-2.8.007-5.6-.005-8.405,0-.374.1-.485.449-.481,1.42.018,2.839.011,4.26,0,.6,0,.906-.325.919-.97.011-.488.006-.975,0-1.462,0-.794-.261-1.069-1-1.071-1.395,0-2.79-.011-4.184.007-.354,0-.475-.132-.439-.5.037-.4.035-.812.083-1.213.157-1.347.662-2.055,1.726-2.323a7.467,7.467,0,0,1,3.363-.138,7.02,7.02,0,0,0,1.271.116c.6.011.9-.326.919-.969.01-.446.006-.894,0-1.34a.952.952,0,0,0-.846-1.091,14.289,14.289,0,0,0-1.418-.2,16.2,16.2,0,0,0-5.546.283,4.649,4.649,0,0,0-3.568,3.2,10.332,10.332,0,0,0-.487,2.734c-.069,2.3-.023,4.6-.023,6.9M123.977,30.8a5.16,5.16,0,0,1-.96,2.177,2.07,2.07,0,0,1-2.073.767,13.991,13.991,0,0,0-1.718-.192c-.534-.022-.841.33-.853.9-.011.473-.006.946,0,1.421,0,.643.249,1,.854,1.068,1.186.132,2.375.279,3.562.292a4.571,4.571,0,0,0,4.349-2.81,17.3,17.3,0,0,0,1.228-3.173c1.25-4.736,2.435-9.491,3.642-14.242.166-.655-.093-1.008-.736-1.01q-1.263-.005-2.526,0a1.2,1.2,0,0,0-1.222.988c-.087.311-.163.626-.244.938q-1.142,4.46-2.279,8.921c-.082.325-.219.4-.51.331a1.987,1.987,0,0,1-1.144-.8,7.927,7.927,0,0,1-1.149-2.54c-.65-2.247-1.275-4.5-1.912-6.754A1.31,1.31,0,0,0,118.953,16c-.854,0-1.708-.006-2.562,0-.595.006-.843.367-.67.988.7,2.526,1.4,5.055,2.129,7.573a12.953,12.953,0,0,0,1.839,4.022,4.786,4.786,0,0,0,3.062,2.046c.381.071.768.107,1.225.169M72.43,30.716c.021.131.033.182.035.235.046.8.283,1.048,1.029,1.05.728,0,1.458,0,2.186,0,.663,0,.935-.3.936-1.016q0-4.565,0-9.133a6.632,6.632,0,0,0-.592-2.864,5.416,5.416,0,0,0-3.756-2.978,12.94,12.94,0,0,0-4.532-.231,9.008,9.008,0,0,0-3.18.777,3.439,3.439,0,0,0-2.09,3.061c-.051.758.27,1.162.964,1.166.591,0,1.18,0,1.771,0a1.912,1.912,0,0,0,1.562-.75,2.485,2.485,0,0,1,.639-.554,3.73,3.73,0,0,1,2-.47c1.751.012,2.464.724,2.648,2.586.039.381-.064.5-.419.495-1.394-.017-2.788-.008-4.182-.006a7.685,7.685,0,0,0-3.1.6,4.587,4.587,0,0,0-2.95,4.41,4.687,4.687,0,0,0,2.714,4.47,7.634,7.634,0,0,0,3.071.729,7.5,7.5,0,0,0,4.623-1.171c.191-.123.379-.25.616-.407M85.117,24.94l-.1,0c-.041-.138-.084-.273-.122-.412q-.982-3.559-1.963-7.118a1.731,1.731,0,0,0-1.65-1.4c-.891-.026-1.784-.015-2.675,0-.387,0-.575.217-.579.637a2.532,2.532,0,0,0,.083.637c.108.418.239.827.362,1.239q1.8,6.047,3.609,12.092A1.756,1.756,0,0,0,83.856,32c.553,0,1.105,0,1.658,0a1.8,1.8,0,0,0,1.877-1.473q1.173-3.985,2.333-7.973c.038-.128.087-.254.165-.484.083.258.131.4.172.535q1.159,3.969,2.317,7.936A1.806,1.806,0,0,0,94.231,32q.81,0,1.62,0a1.771,1.771,0,0,0,1.856-1.443q1.673-5.58,3.335-11.165c.24-.811.5-1.619.69-2.444.151-.645-.109-.945-.723-.948-.728,0-1.457,0-2.185,0a1.866,1.866,0,0,0-2.053,1.658q-.853,3.112-1.709,6.226c-.1.357-.206.71-.308,1.065a2,2,0,0,1-.282-.667c-.633-2.324-1.26-4.649-1.9-6.971A1.544,1.544,0,0,0,90.937,16c-.679,0-1.356,0-2.035,0a1.576,1.576,0,0,0-1.73,1.394c-.39,1.413-.768,2.83-1.152,4.245l-.9,3.3M136.693,48H3.544a1.76,1.76,0,0,0-.281-.084A3.671,3.671,0,0,1,.149,45.042C.1,44.862.05,44.686,0,44.507V3.492a2.239,2.239,0,0,0,.087-.26A3.7,3.7,0,0,1,2.855.158C3.083.1,3.315.052,3.544,0H136.693a1.618,1.618,0,0,0,.281.083,3.674,3.674,0,0,1,3.114,2.875c.045.179.1.356.149.534V44.507a2.367,2.367,0,0,0-.088.259,3.7,3.7,0,0,1-2.768,3.075c-.227.062-.458.106-.688.158" fill="#ffd228"></path><path id="Path_261" data-name="Path 261" d="M283.687,61.578q.451-1.651.9-3.3c.384-1.415.762-2.832,1.152-4.245a1.576,1.576,0,0,1,1.73-1.394c.679,0,1.358,0,2.035,0a1.546,1.546,0,0,1,1.638,1.31q.954,3.483,1.9,6.971a1.974,1.974,0,0,0,.282.667c.1-.355.212-.707.309-1.065q.856-3.112,1.708-6.226a1.866,1.866,0,0,1,2.053-1.658c.728,0,1.457,0,2.185,0,.614,0,.874.3.724.95-.193.825-.45,1.632-.692,2.444q-1.661,5.582-3.333,11.164a1.771,1.771,0,0,1-1.856,1.443q-.81,0-1.62,0a1.806,1.806,0,0,1-1.852-1.459q-1.162-3.967-2.317-7.936c-.041-.14-.089-.277-.172-.535-.078.23-.127.356-.165.484q-1.165,3.987-2.333,7.973a1.8,1.8,0,0,1-1.877,1.473c-.553,0-1.105,0-1.658,0a1.756,1.756,0,0,1-1.779-1.39q-1.811-6.043-3.609-12.092c-.124-.412-.254-.821-.362-1.238a2.547,2.547,0,0,1-.083-.639c0-.42.191-.633.577-.636.893-.011,1.785-.023,2.676,0a1.731,1.731,0,0,1,1.651,1.4q.987,3.557,1.963,7.118c.038.139.081.274.122.412" transform="translate(-198.57 -36.639)" fill="#006d95"></path><path id="Path_262" data-name="Path 262" d="M226.01,61.323v.021c-.69,0-1.382-.033-2.069.01A1.684,1.684,0,0,0,222.4,62.4a1.719,1.719,0,0,0,1.212,2.4,5.916,5.916,0,0,0,4.578-1.132.54.54,0,0,0,.147-.38c.017-.526,0-1.054.011-1.581.008-.3-.108-.4-.379-.4-.652.013-1.3,0-1.957,0m2.692,5.326c-.237.157-.425.284-.616.407a7.5,7.5,0,0,1-4.623,1.171,7.633,7.633,0,0,1-3.071-.729,4.687,4.687,0,0,1-2.714-4.47,4.587,4.587,0,0,1,2.95-4.41,7.685,7.685,0,0,1,3.1-.6c1.394,0,2.788-.011,4.182.006.355,0,.457-.114.42-.495-.186-1.862-.9-2.575-2.649-2.586a3.732,3.732,0,0,0-2,.47,2.485,2.485,0,0,0-.639.554,1.911,1.911,0,0,1-1.561.75c-.591,0-1.181,0-1.772,0-.694,0-1.015-.407-.963-1.166a3.437,3.437,0,0,1,2.089-3.061,9.008,9.008,0,0,1,3.18-.777,12.94,12.94,0,0,1,4.532.231,5.42,5.42,0,0,1,3.757,2.978,6.648,6.648,0,0,1,.591,2.864q0,4.567,0,9.133c0,.72-.271,1.012-.935,1.016-.728,0-1.458,0-2.186,0-.746,0-.983-.245-1.029-1.05,0-.053-.014-.1-.035-.235" transform="translate(-156.272 -35.933)" fill="#006d95"></path><path id="Path_263" data-name="Path 263" d="M418.348,67.443c-.457-.062-.844-.1-1.225-.169a4.785,4.785,0,0,1-3.062-2.046,12.952,12.952,0,0,1-1.839-4.022c-.729-2.518-1.425-5.047-2.129-7.573-.173-.621.075-.982.669-.988.855-.007,1.709,0,2.563,0a1.31,1.31,0,0,1,1.331,1.081c.638,2.252,1.263,4.507,1.912,6.754a7.928,7.928,0,0,0,1.149,2.54,1.986,1.986,0,0,0,1.144.8c.291.072.428-.007.51-.331q1.129-4.464,2.279-8.921c.08-.312.158-.627.243-.938a1.2,1.2,0,0,1,1.223-.988q1.263-.005,2.526,0c.643,0,.9.355.736,1.01-1.205,4.75-2.392,9.505-3.642,14.242a17.3,17.3,0,0,1-1.228,3.173,4.571,4.571,0,0,1-4.349,2.81,35.572,35.572,0,0,1-3.562-.292c-.6-.067-.85-.425-.854-1.068,0-.474-.008-.948,0-1.422.012-.572.318-.925.853-.9a13.99,13.99,0,0,1,1.718.192,2.07,2.07,0,0,0,2.073-.767,5.159,5.159,0,0,0,.96-2.177" transform="translate(-294.372 -36.645)" fill="#006d95"></path><path id="Path_264" data-name="Path 264" d="M177.419,48.58c0-2.3-.045-4.6.023-6.9a10.332,10.332,0,0,1,.487-2.734,4.649,4.649,0,0,1,3.568-3.2,16.2,16.2,0,0,1,5.546-.283,14.289,14.289,0,0,1,1.418.2.952.952,0,0,1,.846,1.091c0,.446.009.894,0,1.34-.015.642-.322.979-.919.969a7.019,7.019,0,0,1-1.271-.116,7.467,7.467,0,0,0-3.363.138c-1.063.268-1.568.976-1.726,2.323-.047.4-.045.81-.083,1.213-.035.364.086.5.439.5,1.394-.018,2.789-.008,4.184-.007.742,0,1,.277,1,1.071,0,.488.008.975,0,1.462-.013.645-.317.967-.919.97-1.42.006-2.839.013-4.259,0-.345,0-.452.107-.45.481.012,2.8.006,5.6.005,8.405,0,.849-.248,1.115-1.036,1.116q-1.245,0-2.488,0c-.769,0-1.024-.27-1.025-1.088q0-3.472,0-6.944" transform="translate(-127.354 -24.611)" fill="#006d95"></path><path id="Path_265" data-name="Path 265" d="M372.12,53.749c.414-.3.731-.538,1.057-.763A7.97,7.97,0,0,1,378,51.662a.8.8,0,0,1,.808.876c.019.744.02,1.49,0,2.233-.015.571-.3.88-.836.883a16.6,16.6,0,0,1-1.882-.071,3.87,3.87,0,0,0-3.19,1.24,2.415,2.415,0,0,0-.793,1.966c.055,2.679.021,5.359.02,8.039,0,.861-.259,1.135-1.066,1.135-.867,0-1.734,0-2.6,0-.6,0-.907-.327-.907-.976q0-7.024,0-14.049,0-.97.907-.973,1.4-.007,2.789,0c.555,0,.858.33.876.928.006.253,0,.507,0,.857" transform="translate(-263.865 -35.963)" fill="#006d95"></path><path id="Path_266" data-name="Path 266" d="M237.64,83.543c.652,0,1.3.008,1.957,0,.271-.006.387.091.379.4-.016.527.006,1.055-.011,1.581a.54.54,0,0,1-.147.38,5.916,5.916,0,0,1-4.578,1.132,1.719,1.719,0,0,1-1.212-2.4,1.684,1.684,0,0,1,1.543-1.05c.687-.043,1.379-.009,2.069-.009" transform="translate(-167.902 -58.154)" fill="#ffd228"></path><path id="Path_267" data-name="Path 267" d="M62.77,35.059c0,10.469-7.879,18.957-17.6,18.957a16.454,16.454,0,0,1-5.309-.878,17.34,17.34,0,0,1-6.689-4.209,19.611,19.611,0,0,1-5.6-13.87c0-10.47,7.879-18.957,17.6-18.957a16.428,16.428,0,0,1,5.991,1.128,17.491,17.491,0,0,1,6.411,4.38,19.657,19.657,0,0,1,5.2,13.45" transform="translate(-19.796 -11.209)" fill="#fff"></path><path id="Path_268" data-name="Path 268" d="M67.591,78.961l-2.369-1.276s-4.042,7.926-11.1,11.3a17.329,17.329,0,0,1-6.689-4.21,11.841,11.841,0,0,0,6.7-3.9c4.311-4.568,5.3-7.081,5.3-7.081l-1.848-1.327a1.028,1.028,0,0,1,.208-1.767l8.13-3.051a.925.925,0,0,1,1.22.81l1.208,9.916a.532.532,0,0,1-.754.578" transform="translate(-34.05 -47.059)" fill="#006d95"></path><path id="Path_269" data-name="Path 269" d="M111.6,34.718a.527.527,0,0,1-1.026-.113l-.542-3.358-4.019,1.346a.561.561,0,0,1-.642-.8,33.794,33.794,0,0,0,1.905-5.88,11.6,11.6,0,0,0-.3-6.1,17.5,17.5,0,0,1,6.412,4.38,26.487,26.487,0,0,1-1.79,10.525" transform="translate(-75.609 -13.792)" fill="#006d95"></path></g></g></svg> 