<?xml version="1.0" encoding="UTF-8"?> <svg xmlns="http://www.w3.org/2000/svg" viewBox="0 0 303.16 45.07"><defs><style>.cls-1{fill:#fff;}</style></defs><g id="Layer_2" data-name="Layer 2"><g id="Layer_1-2" data-name="Layer 1"><path class="cls-1" d="M41.63,26.06c0-3.35,0-6.71,0-10.06q0-6-.11-11.93a3.63,3.63,0,0,0,0-.57,1.28,1.28,0,0,0-2-.91,2.48,2.48,0,0,0-.44.36L36.83,5.06C35.54,6.29,34.29,7.57,33,8.77c-1,.94-2,2-3.06,2.9C28,13.42,26.2,15.23,24.33,17c-.93.9-1.88,1.78-2.83,2.67l-.24.21a.43.43,0,0,1-.59,0,1.58,1.58,0,0,1-.3-.28c-1.09-1-2.18-2.1-3.29-3.13s-2-2-3.06-2.9c-1.42-1.3-2.79-2.65-4.17-4-1.76-1.68-3.51-3.37-5.28-5-.66-.64-1.33-1.26-2-1.89a1.88,1.88,0,0,0-.3-.27,1.33,1.33,0,0,0-2.2.8A3.05,3.05,0,0,0,0,4C0,5,.09,6,.09,7.06q0,16.38,0,32.79c0,.38,0,.76,0,1.14a2.68,2.68,0,0,0,.07.56,1.32,1.32,0,0,0,.68.87h1.2a1.61,1.61,0,0,0,.41-.34,1.54,1.54,0,0,0,.32-.82c0-.32,0-.65,0-1,0-5.3,0-10.6-.08-15.91-.1-5.54,0-11.09,0-16.63V7.33a1.75,1.75,0,0,1,0-.24.23.23,0,0,1,.36-.18,3.88,3.88,0,0,1,.31.26L6.18,9.79,7.47,11c1.44,1.35,2.88,2.69,4.31,4.05,1.88,1.8,3.74,3.61,5.62,5.4.76.73,1.53,1.45,2.3,2.17a5.08,5.08,0,0,0,.43.38A1.28,1.28,0,0,0,22,23c.51-.44,1-.9,1.49-1.37,1.13-1.05,2.2-2.15,3.35-3.2,1.37-1.26,2.7-2.57,4-3.86L36.69,8.9c.53-.51,1.07-1,1.61-1.49l.19-.15c.18-.13.38,0,.4.2a8.72,8.72,0,0,1,0,.89q0,10.1,0,20.21l0,11.77a4.9,4.9,0,0,0,.09,1.21,1.24,1.24,0,0,0,.53.79l.16.09h1.13a1.33,1.33,0,0,0,.74-1,5.35,5.35,0,0,0,0-.89V26.06ZM89.32,3.32a1.25,1.25,0,0,0-1.75-.2,3.2,3.2,0,0,0-.5.41l-2.2,2q-2.15,2-4.29,4L74,15.65,69.34,20c-.57.52-.66.52-1.21,0L64.36,16.5l-4.23-3.9L55.9,8.69,50.78,4A16.38,16.38,0,0,0,49.5,2.84,1.22,1.22,0,0,0,47.81,3a1.24,1.24,0,0,0-.12,1.7,5.16,5.16,0,0,0,.56.59l3.58,3.28,4.35,4,4.24,3.91L66,21.69a5,5,0,0,0,.55.47,2,2,0,0,1,.94,2c0,.1,0,.21,0,.32,0,1.17-.09,2.33-.1,3.49,0,1.95,0,3.89,0,5.84h0v6.57c0,.27,0,.55,0,.82a1.28,1.28,0,0,0,.48.9,1.32,1.32,0,0,0,.83.31,1.24,1.24,0,0,0,1.23-1.07,12.57,12.57,0,0,0,.14-1.94c0-5.12,0-10.22,0-15.34,0-1.33.1-1.18.79-1.82,1.57-1.48,3.16-2.95,4.75-4.42Q77.3,16.24,79,14.66l2.37-2.2,6.08-5.61c.32-.3.65-.58,1-.88a10,10,0,0,0,.93-.91A1.2,1.2,0,0,0,89.32,3.32Zm49,36.81a7.67,7.67,0,0,0-.56-.58c-1.49-1.38-3-2.76-4.45-4.16L127.53,30l-5.15-4.82c-.15-.15-.31-.3-.46-.46a.28.28,0,0,1-.06-.3.29.29,0,0,1,.27-.15c.25,0,.49,0,.73,0l5.35,0a10.71,10.71,0,0,0,4-.76,8.81,8.81,0,0,0,5.06-4.88,14,14,0,0,0,.57-8.84,8.37,8.37,0,0,0-2.24-4.07,9.82,9.82,0,0,0-7.07-3c-5.2,0-10.39,0-15.59,0H97.41c-.3,0-.6,0-.89,0a1.22,1.22,0,0,0-1.26,1.14,1.23,1.23,0,0,0,1.07,1.47,5.25,5.25,0,0,0,1,.07c3.13,0,6.28,0,9.42,0h21.67a7.25,7.25,0,0,1,4.14,1.24A5.64,5.64,0,0,1,134.69,9a8,8,0,0,1,.85,3.6c0,.41,0,.82,0,1.22a9.47,9.47,0,0,1-.67,3.57,5.7,5.7,0,0,1-1.54,2.35,7,7,0,0,1-4.66,1.82c-4.28.07-8.55,0-12.83.11-6.11.14-12.23,0-18.34.19-.25,0-.49,0-.73,0A1.23,1.23,0,0,0,95.62,23a3.63,3.63,0,0,0,0,.57c0,2.81,0,5.62-.1,8.44s0,5.95-.06,8.92a4.64,4.64,0,0,0,0,.65,1.2,1.2,0,0,0,.51.82h1.55a1.24,1.24,0,0,0,.53-.92,7.06,7.06,0,0,0,.09-1.29q0-7.11,0-14.21c0-.3,0-.6,0-.9a.52.52,0,0,1,.52-.52h.32c2,0,3.9-.1,5.85-.13l8-.05c.74,0,1.46,0,2.19-.07a16.07,16.07,0,0,1,1.7,0,1.43,1.43,0,0,1,1,.35c.46.42.94.82,1.39,1.24s1,.95,1.46,1.41c1.21,1.12,2.43,2.23,3.64,3.36l4.81,4.47,4.69,4.38c.82.75,1.62,1.51,2.44,2.27l.24.21a1.38,1.38,0,0,0,1.84-.14A1.36,1.36,0,0,0,138.29,40.13Zm9.27-21.05c-.05-1.59,0-3.19,0-4.78,0-3.09,0-6.17,0-9.26a3.34,3.34,0,0,0-.1-1A1.31,1.31,0,0,0,146,3a1.29,1.29,0,0,0-1.19,1.23c0,.27,0,.54,0,.81.08,5.61-.05,11.2.13,16.8.12,3.6.07,7.2.05,10.8,0,2.57.2,5.13.14,7.7a2.7,2.7,0,0,0,0,.49,1.3,1.3,0,0,0,1.38,1.1,1.24,1.24,0,0,0,1.19-1.2c0-.28,0-.55,0-.81V31.5C147.66,27.36,147.69,23.22,147.56,19.08Zm51-.36a19.59,19.59,0,0,0-2.4-7A14.93,14.93,0,0,0,192,7.07a18.22,18.22,0,0,0-11-3.56c-4.14,0-8.28,0-12.42.11-3.22.11-6.43,0-9.65,0a6.71,6.71,0,0,0-.9,0A1.34,1.34,0,0,0,156.82,5a3.85,3.85,0,0,1,0,.48c-.06,5.79,0,11.58-.11,17.37-.12,5.57-.06,11.15-.06,16.72,0,.24,0,.48,0,.73a1.29,1.29,0,0,0,1.23,1.28,6.62,6.62,0,0,0,.89,0H170v0h11.12a22.82,22.82,0,0,0,2.75-.19A17.66,17.66,0,0,0,189.13,40a15,15,0,0,0,7.32-6.85,22.15,22.15,0,0,0,2.38-9.61A24.67,24.67,0,0,0,198.53,18.72Zm-2.46,5.1a22.15,22.15,0,0,1-.79,5,13.51,13.51,0,0,1-2.3,4.71,12.7,12.7,0,0,1-3.42,3.07,15.93,15.93,0,0,1-6.25,2.14,18.48,18.48,0,0,1-2.1.12H160.68c-.3,0-.6,0-.89,0a.52.52,0,0,1-.51-.53,1.41,1.41,0,0,1,0-.41,11.68,11.68,0,0,0,.07-1.78V22.64h.05c0-1.9,0-3.79,0-5.69,0-3.22.07-6.43.12-9.65,0-.85.08-.91.93-.93,7-.21,14.06-.12,21.1-.15a14.45,14.45,0,0,1,7.4,2.1,13.69,13.69,0,0,1,6.63,9.38A22.06,22.06,0,0,1,196.07,23.82Zm49.82,15.12h-15.5l-20.71,0c-.87,0-1.15,0-1.05-1.15.06-.64.08-1.29.08-1.94,0-3.3,0-6.6,0-9.9a8.69,8.69,0,0,1,.05-.89.46.46,0,0,1,.44-.42c.29,0,.59,0,.89,0,5.65.06,11.3,0,17,.11,6.22.12,12.44,0,18.67.07h.48a1.38,1.38,0,0,0,1.25-1.38,1.32,1.32,0,0,0-1-1.29,3,3,0,0,0-.73-.07c-5.65-.05-11.31,0-17-.11-6.27-.1-12.55,0-18.83,0-1,0-1.07-.06-1.07-1.05q0-6.61,0-13.22c0-.22,0-.44,0-.65a.48.48,0,0,1,.48-.47c.32,0,.65,0,1,0L232,6.4l13.31,0a5.16,5.16,0,0,0,.89,0,1.37,1.37,0,0,0,1.15-1.2,1.38,1.38,0,0,0-.93-1.38,1.93,1.93,0,0,0-.48-.08c-.29,0-.59,0-.89,0-8.09.06-16.17-.06-24.26.12-4.14.09-8.28,0-12.42,0a6.56,6.56,0,0,0-.89,0A1.21,1.21,0,0,0,206.36,5a5.86,5.86,0,0,0,0,.73c-.06,3.19,0,6.38-.1,9.57-.13,5.08,0,10.17-.17,15.25-.08,2.6-.05,5.2-.05,7.8,0,.59,0,1.19,0,1.79a1.37,1.37,0,0,0,1.37,1.48,8,8,0,0,0,1,0H226.7v0c2.76,0,5.52,0,8.28,0H245.3a7.53,7.53,0,0,0,1-.05,1.18,1.18,0,0,0,1-1,1.24,1.24,0,0,0-.46-1.3A1.58,1.58,0,0,0,245.89,38.94ZM251.58,0a.47.47,0,0,1,0,.17c0,.22,0,.43,0,.64V0Z"></path><path class="cls-1" d="M257.65,39c-1,0-2.19-.17-2.41-1.14a1.42,1.42,0,0,1-.05-.48,38.93,38.93,0,0,1,1.63-7.59c1.66-5.79,4-12.86,4.74-14.48.13-.35.57-.48,1.09-.48,1.1,0,2.59.65,2.59,1.35l0,.18c-1.32,3.42-2.5,7.15-3.64,10.66l.57.09c1.62,0,3.73-1.75,5.35-4a11.29,11.29,0,0,0,2.37-5.93c0-1.71-.92-3.15-3.56-3.51a13.17,13.17,0,0,0-1.84-.13c-5.48,0-12.72,2.72-13.87,8.3a.42.42,0,0,1-.43.39l-.35-.09c-1-.44-2-2.54-2-4.17a2.19,2.19,0,0,1,.61-1.71c4-3.46,9-4.69,14.09-4.69h.53c5.83,0,10.05,2.41,10.05,6.84A10.7,10.7,0,0,1,271.87,23c-1.63,3.33-4.79,6.14-8.25,6.45h-.4a3.09,3.09,0,0,1-2.15-.84c-1,3.16-2.54,8.38-2.54,10a.44.44,0,0,1-.44.44Z"></path><path class="cls-1" d="M281.57,36.86c-1.1,0-2.24-.13-2.72-1a3.66,3.66,0,0,1-.36-1.84c0-.44.05-.88.09-1.41-1,1.76-2.41,3.47-4.12,3.47h-.09c-2.11,0-3-1.8-3-4.08,0-4.35,3.16-10.53,7.5-10.53h0a2.86,2.86,0,0,1,2.59,1.23l.31-.79a1.23,1.23,0,0,1,1.14-.49c1,0,2.37.62,2.37,1.32l0,.17c-.57,1.41-3.43,9-3.51,12.12,0,.61,0,1,.26,1,1.45-.05,4.21-5.67,5.48-8.43a.37.37,0,0,1,.4-.26l.22,0a.36.36,0,0,1,.22.35.42.42,0,0,1-.05.22c-1.44,3.12-4.16,8.87-6.23,9Zm-1.89-9a8.56,8.56,0,0,0,.61-2.72c0-.61-.17-1.09-.65-1.23l-.27,0c-2,0-4.47,6-4.47,8.56,0,.74.22,1.18.65,1.18C276.87,33.53,279.24,28.92,279.68,27.82Z"></path><path class="cls-1" d="M288.33,45.07a2.83,2.83,0,0,1-2.9-3l0-.71c.44-2.76,2.72-3.68,6.72-4A43.59,43.59,0,0,0,293.55,33c-1.06,1.93-2.46,3.86-3.69,3.9h-.57c-1.1,0-2.24-.13-2.72-1a3.59,3.59,0,0,1-.35-1.8c0-3.55,2.37-10.09,3.33-12.11a1.15,1.15,0,0,1,1.1-.53c1.05,0,2.41.66,2.41,1.36l0,.18c-.39,1-3.6,9.78-3.6,12.37,0,.44.13.71.35.71.49-.05,1.32-.62,2.46-2.46a38.29,38.29,0,0,0,3.12-6.89c.44-1.54,1-3.12,1.53-4.7.13-.39.62-.57,1.19-.57,1.05,0,2.41.57,2.41,1.28l0,.17c-.53,1.41-1.1,3.29-1.71,5.4-.93,2.94-1.93,6.23-2.94,9a8.5,8.5,0,0,0,3.07-2.94,42.11,42.11,0,0,0,3.46-6.71.49.49,0,0,1,.4-.26.43.43,0,0,1,.44.39.42.42,0,0,1-.05.22,43.64,43.64,0,0,1-3.51,6.85,9.34,9.34,0,0,1-4.25,3.6c-1.19,3-3,6.71-6.72,6.71Zm3.55-6.71c-3.64.21-4.91,1.09-5.35,2.63a3.21,3.21,0,0,0-.14.88,1.14,1.14,0,0,0,1.28,1.27C289.33,43.14,290.87,40.81,291.88,38.36Z"></path></g></g></svg> 