<svg xmlns="http://www.w3.org/2000/svg" width="65" height="65" viewBox="0 0 65 65">
  <g id="Insta" transform="translate(6113 9630)">
    <g id="Group_8363" data-name="Group 8363" transform="translate(188)" opacity="0">
      <circle id="Ellipse_79" data-name="Ellipse 79" cx="32.5" cy="32.5" r="32.5" transform="translate(-6301 -9630)" fill="#fff"/>
    </g>
    <path id="Path_19680" data-name="Path 19680" d="M13.884-38.744a6.936,6.936,0,0,1,3.564.961,7.149,7.149,0,0,1,2.6,2.6,6.936,6.936,0,0,1,.961,3.564,6.936,6.936,0,0,1-.961,3.564,7.149,7.149,0,0,1-2.6,2.6,6.936,6.936,0,0,1-3.564.961,6.936,6.936,0,0,1-3.564-.961,7.149,7.149,0,0,1-2.6-2.6,6.936,6.936,0,0,1-.961-3.564,6.936,6.936,0,0,1,.961-3.564,7.149,7.149,0,0,1,2.6-2.6A6.936,6.936,0,0,1,13.884-38.744Zm0,11.777a4.478,4.478,0,0,0,3.285-1.364,4.478,4.478,0,0,0,1.364-3.285A4.478,4.478,0,0,0,17.169-34.9a4.478,4.478,0,0,0-3.285-1.364A4.478,4.478,0,0,0,10.6-34.9a4.478,4.478,0,0,0-1.364,3.285A4.478,4.478,0,0,0,10.6-28.331,4.478,4.478,0,0,0,13.884-26.967ZM23-39.054a1.609,1.609,0,0,0-.5-1.178,1.609,1.609,0,0,0-1.178-.5,1.609,1.609,0,0,0-1.178.5,1.609,1.609,0,0,0-.5,1.178,1.609,1.609,0,0,0,.5,1.178,1.609,1.609,0,0,0,1.178.5,1.51,1.51,0,0,0,1.147-.5A1.931,1.931,0,0,0,23-39.054Zm4.711,1.674q.062,1.736.062,5.764t-.093,5.8a11.69,11.69,0,0,1-.527,3.068,7.225,7.225,0,0,1-1.7,2.7,7.225,7.225,0,0,1-2.7,1.7,11.69,11.69,0,0,1-3.068.527q-1.767.093-5.8.093t-5.8-.093a10.121,10.121,0,0,1-3.068-.589,6.607,6.607,0,0,1-2.7-1.643,7.225,7.225,0,0,1-1.7-2.7A11.69,11.69,0,0,1,.093-25.82Q0-27.587,0-31.616t.093-5.8A11.69,11.69,0,0,1,.62-40.479a7.224,7.224,0,0,1,1.7-2.7,7.225,7.225,0,0,1,2.7-1.7,11.689,11.689,0,0,1,3.068-.527q1.767-.093,5.8-.093t5.8.093a11.69,11.69,0,0,1,3.068.527,7.224,7.224,0,0,1,2.7,1.7,7.225,7.225,0,0,1,1.7,2.7A12.61,12.61,0,0,1,27.707-37.38ZM24.731-23.434a13.051,13.051,0,0,0,.5-3.347q.062-1.364.062-3.843v-1.983q0-2.541-.062-3.843a12.437,12.437,0,0,0-.5-3.347,4.473,4.473,0,0,0-2.665-2.665,12.437,12.437,0,0,0-3.347-.5q-1.364-.062-3.843-.062H12.893q-2.479,0-3.843.062a13.05,13.05,0,0,0-3.347.5A4.473,4.473,0,0,0,3.037-39.8a12.437,12.437,0,0,0-.5,3.347q-.062,1.364-.062,3.843v1.983q0,2.479.062,3.843a13.051,13.051,0,0,0,.5,3.347A4.7,4.7,0,0,0,5.7-20.769a13.051,13.051,0,0,0,3.347.5q1.364.062,3.843.062h1.983q2.541,0,3.843-.062a12.437,12.437,0,0,0,3.347-.5A4.7,4.7,0,0,0,24.731-23.434Z" transform="translate(-6094 -9565.5)" fill="red"/>
  </g>
</svg>
