<svg xmlns="http://www.w3.org/2000/svg" width="65" height="65" viewBox="0 0 65 65">
  <g id="Linkedin" transform="translate(6301 9630)">
    <circle id="Ellipse_79" data-name="Ellipse 79" cx="32.5" cy="32.5" r="32.5" transform="translate(-6301 -9630)" fill="#fff" opacity="0"/>
    <g id="linkedin-logo" transform="translate(-6282 -9611)">
      <g id="post-linkedin">
        <path id="Path_19678" data-name="Path 19678" d="M25.175,0H2.8A2.805,2.805,0,0,0,0,2.8V25.175a2.805,2.805,0,0,0,2.8,2.8H25.175a2.805,2.805,0,0,0,2.8-2.8V2.8A2.805,2.805,0,0,0,25.175,0ZM8.392,23.776H4.2V11.189h4.2ZM6.294,8.811A2.517,2.517,0,1,1,8.811,6.294,2.507,2.507,0,0,1,6.294,8.811ZM23.776,23.776h-4.2V16.363a2.1,2.1,0,0,0-4.2,0v7.412h-4.2V11.189h4.2v1.678a4.518,4.518,0,0,1,3.5-1.958,4.955,4.955,0,0,1,4.9,4.9Z" fill="red"/>
      </g>
    </g>
  </g>
</svg>
