<?xml version="1.0" encoding="UTF-8"?> <svg xmlns="http://www.w3.org/2000/svg" width="197" height="149" viewBox="0 0 197 149"><g id="Group_468" data-name="Group 468" transform="translate(-1779 869)"><rect id="Rectangle_40" data-name="Rectangle 40" width="197" height="149" rx="2" transform="translate(1779 -869)" fill="#fff"></rect><g id="Group_452" data-name="Group 452" transform="translate(730 -1813)"><rect id="Rectangle_21" data-name="Rectangle 21" width="58.22" height="19.395" transform="translate(1079 1022.465)" fill="#84b740"></rect><rect id="Rectangle_22" data-name="Rectangle 22" width="58.22" height="19.412" transform="translate(1079 996)" fill="#259bd6"></rect><path id="Path_274" data-name="Path 274" d="M389.071,274.952l-.259.052a8.494,8.494,0,0,1-1.884.242c-1.521,0-3.319-.778-3.319-4.443,0-1.884.311-4.391,3.146-4.391h.017a8.519,8.519,0,0,1,2.074.4l.225.069v8.073Zm.467-18.272-.467.087v6.776l-.415-.121-.121-.035a9.541,9.541,0,0,0-2.576-.449c-5.67,0-6.863,4.287-6.863,7.882,0,4.927,2.766,7.762,7.589,7.762a15.384,15.384,0,0,0,5.065-.709,2.238,2.238,0,0,0,1.9-2.455V255.972c-1.349.242-2.749.484-4.114.709" transform="translate(806.369 762.967)" fill="#27292d"></path><path id="Path_275" data-name="Path 275" d="M444.649,290.688l-.242.069-.864.225a9.014,9.014,0,0,1-2.092.328c-1.331,0-2.126-.657-2.126-1.78,0-.726.328-1.953,2.506-1.953h2.818v3.111Zm-1.988-12.222a19.128,19.128,0,0,0-5.774,1l-1.452.432.484,3.284,1.418-.467a16.662,16.662,0,0,1,4.719-.8c.622,0,2.524,0,2.524,2.057v.9h-2.645c-4.823,0-7.053,1.538-7.053,4.84,0,2.818,2.057,4.512,5.514,4.512a17.813,17.813,0,0,0,3.838-.519l.069-.017.069.017.432.069c1.348.242,2.748.484,4.114.743V283.738c0-3.491-2.109-5.272-6.258-5.272" transform="translate(767.646 747.353)" fill="#27292d"></path><path id="Path_276" data-name="Path 276" d="M334.833,290.688l-.242.069-.864.225a8.883,8.883,0,0,1-2.092.328c-1.331,0-2.126-.657-2.126-1.78,0-.726.328-1.953,2.489-1.953h2.817v3.111Zm-1.971-12.222a19.041,19.041,0,0,0-5.774,1l-1.452.432.484,3.284,1.418-.467a16.663,16.663,0,0,1,4.719-.8c.622,0,2.524,0,2.524,2.057v.9h-2.645c-4.823,0-7.07,1.538-7.07,4.84,0,2.818,2.057,4.512,5.532,4.512a17.813,17.813,0,0,0,3.838-.519l.069-.017.069.017.415.069c1.366.242,2.748.484,4.114.761V283.755c.017-3.526-2.091-5.289-6.24-5.289" transform="translate(843.875 747.353)" fill="#27292d"></path><path id="Path_277" data-name="Path 277" d="M260.685,278.539A11.665,11.665,0,0,0,256,279.577l-.173.087-.156-.121a7.092,7.092,0,0,0-4.2-1.02,17.187,17.187,0,0,0-4.961.743c-1.469.449-2.04,1.158-2.04,2.489V294.08h4.6V282.688l.225-.069a5.855,5.855,0,0,1,2.023-.363,1.818,1.818,0,0,1,2.005,2.092V294.1h4.529v-9.94a3.35,3.35,0,0,0-.138-1l-.156-.294.311-.138a5.453,5.453,0,0,1,2.247-.467,1.831,1.831,0,0,1,2.005,2.092V294.1h4.512V283.9c0-3.613-1.936-5.359-5.946-5.359" transform="translate(899.82 747.314)" fill="#27292d"></path><path id="Path_278" data-name="Path 278" d="M388.806,193.625a15.69,15.69,0,0,1-2.679-.242l-.259-.052v-6.655a3.25,3.25,0,0,0-.121-.951l-.138-.277.294-.121c.069-.035.138-.052.225-.087l.052-.035.311-.1a.437.437,0,0,1,.121-.035,10.737,10.737,0,0,1,2.368-.277H389c2.817,0,3.146,2.506,3.146,4.391-.017,3.665-1.833,4.443-3.337,4.443m-.017-12.653h-.121c-2.645,0-5.359.726-6.327,2.143a4.325,4.325,0,0,0-.83,2.576h0v6.863a2.033,2.033,0,0,1-.138.864l-.156.294h-8.349v-4.771h-.017c-.1-5.03-3.077-7.8-7.381-7.8h-4.2c-.173,1.227-.311,2.092-.484,3.319h4.183c2.2,0,3.354,1.867,3.354,4.736v4.806l-.294-.156a3.17,3.17,0,0,0-.985-.138h-7.226c-.138.916-.311,2.109-.5,3.3h22.213c.761-.156,1.642-.294,2.4-.415a12.508,12.508,0,0,0,4.65.847c4.823,0,7.952-3.233,7.952-8.211-.017-4.927-3.042-8.159-7.744-8.263" transform="translate(820.101 815.028)" fill="#27292d"></path><path id="Path_279" data-name="Path 279" d="M270.122,199.468h.207c4.823,0,7.07-1.59,7.07-5.514,0-2.818-2.057-5.065-5.514-5.065h-4.443a1.914,1.914,0,0,1-2.126-2.04c0-.864.328-1.936,2.506-1.936h9.715c.207-1.262.311-2.057.5-3.319h-10.1c-4.7,0-7.07,1.971-7.07,5.255,0,3.25,2.057,4.944,5.514,4.944h4.442a2.1,2.1,0,0,1,2.126,2.161,2.171,2.171,0,0,1-2.489,2.23h-.743l-14.227-.035H252.9c-2.2,0-3.734-1.245-3.734-4.131V190.03c0-3.008,1.193-4.875,3.734-4.875h4.218c.19-1.279.311-2.092.484-3.3H251.85c-4.3,0-7.277,2.887-7.381,7.917h0v2.247c.1,5.03,3.077,7.433,7.381,7.433h4.2l7.71.017h6.362Z" transform="translate(899.821 814.596)" fill="#27292d"></path></g></g></svg> 