<svg xmlns="http://www.w3.org/2000/svg" xmlns:xlink="http://www.w3.org/1999/xlink" width="223" height="200" viewBox="0 0 223 200">
  <defs>
    <clipPath id="clip-path">
      <rect id="Rectangle_935" data-name="Rectangle 935" width="223" height="200" transform="translate(4998 1164)" fill="#fff"/>
    </clipPath>
  </defs>
  <g id="Mask_Group_36" data-name="Mask Group 36" transform="translate(-4998 -1164)" clip-path="url(#clip-path)">
    <g id="Group_7247" data-name="Group 7247" transform="translate(0 1)">
      <rect id="Rectangle_930" data-name="Rectangle 930" width="160.584" height="219.389" rx="11" transform="translate(5219.389 1165) rotate(90)" fill="none" stroke="#2d2929" stroke-width="2"/>
      <rect id="Rectangle_931" data-name="Rectangle 931" width="187.501" height="140.172" rx="9" transform="translate(5015.452 1175.303)" fill="#f5efef" stroke="#2d2929" stroke-width="2"/>
      <g id="Group_7241" data-name="Group 7241" transform="translate(5073.254 1198.03)">
        <path id="Path_18148" data-name="Path 18148" d="M14.754-10.838a7.752,7.752,0,0,1-1.73,5.379,6.256,6.256,0,0,1-4.9,1.919A6.3,6.3,0,0,1,3.2-5.444a7.8,7.8,0,0,1-1.72-5.413,7.68,7.68,0,0,1,1.73-5.389,6.374,6.374,0,0,1,4.938-1.88,6.245,6.245,0,0,1,4.884,1.909A7.744,7.744,0,0,1,14.754-10.838Zm-10.816,0A6.355,6.355,0,0,0,5-6.869a3.729,3.729,0,0,0,3.13,1.352,3.722,3.722,0,0,0,3.116-1.338,6.366,6.366,0,0,0,1.052-3.984,6.38,6.38,0,0,0-1.042-3.955A3.683,3.683,0,0,0,8.145-16.14,3.76,3.76,0,0,0,5-14.793,6.294,6.294,0,0,0,3.939-10.838ZM29.6-3.734h-2.84L19.794-15.026h-.078l.048.63q.136,1.8.136,3.3v7.367H17.8V-17.9h2.811L27.557-6.671h.058q-.019-.223-.078-1.624t-.058-2.186V-17.9H29.6Zm3.741,0V-17.9h2.316V-5.721h6v1.987Zm10.758,0V-17.9h2.316V-3.734Zm17.861,0h-2.84L52.154-15.026h-.078l.048.63q.136,1.8.136,3.3v7.367h-2.1V-17.9h2.811L59.917-6.671h.058q-.019-.223-.078-1.624t-.058-2.186V-17.9h2.122Zm11.756,0H65.7V-17.9h8.015v1.958h-5.7v3.858h5.34v1.939h-5.34V-5.7h5.7Z" transform="translate(-1.477 18.127)" fill="red"/>
        <path id="Path_18149" data-name="Path 18149" d="M2.171-4.81v3.2H1.276v-7.7h2.11a3.32,3.32,0,0,1,2.092.542,1.966,1.966,0,0,1,.676,1.632A2.044,2.044,0,0,1,4.607-5.068L6.7-1.61H5.639L3.776-4.81Zm0-.768H3.4a2.117,2.117,0,0,0,1.389-.376,1.4,1.4,0,0,0,.442-1.129,1.285,1.285,0,0,0-.45-1.1,2.437,2.437,0,0,0-1.445-.337H2.171ZM12.227-1.61H7.938v-7.7h4.289v.795H8.833v2.479h3.189v.79H8.833V-2.41h3.394Zm5.089-4.032h2.616V-1.9A8.408,8.408,0,0,1,18.69-1.6a9.454,9.454,0,0,1-1.463.1,3.546,3.546,0,0,1-2.721-1.04,4.1,4.1,0,0,1-.974-2.913,4.4,4.4,0,0,1,.482-2.1A3.257,3.257,0,0,1,15.4-8.939a4.492,4.492,0,0,1,2.121-.476,5.8,5.8,0,0,1,2.295.453l-.347.79a5.125,5.125,0,0,0-2.005-.442,2.871,2.871,0,0,0-2.195.837,3.248,3.248,0,0,0-.789,2.321,3.32,3.32,0,0,0,.76,2.363,2.928,2.928,0,0,0,2.234.805,6.637,6.637,0,0,0,1.563-.184V-4.842H17.316ZM21.779-1.61v-7.7h.895v7.7Zm7.347-2.047a1.888,1.888,0,0,1-.737,1.584,3.194,3.194,0,0,1-2,.568,5.008,5.008,0,0,1-2.105-.353v-.863a5.542,5.542,0,0,0,1.031.316,5.426,5.426,0,0,0,1.105.116,2.23,2.23,0,0,0,1.347-.339,1.114,1.114,0,0,0,.453-.945,1.213,1.213,0,0,0-.161-.655,1.491,1.491,0,0,0-.537-.471,7.509,7.509,0,0,0-1.145-.489A3.654,3.654,0,0,1,24.845-6.1a2.01,2.01,0,0,1-.46-1.374,1.709,1.709,0,0,1,.668-1.416,2.777,2.777,0,0,1,1.768-.526,5.211,5.211,0,0,1,2.11.421l-.279.779a4.769,4.769,0,0,0-1.852-.4,1.793,1.793,0,0,0-1.11.305,1.006,1.006,0,0,0-.4.847,1.3,1.3,0,0,0,.147.655,1.387,1.387,0,0,0,.5.468A6.179,6.179,0,0,0,27-5.868a4.24,4.24,0,0,1,1.666.926A1.822,1.822,0,0,1,29.126-3.658ZM33.067-1.61h-.895v-6.9H29.736v-.795H35.5v.795H33.067Zm4.489-3.2v3.2h-.895v-7.7h2.11a3.32,3.32,0,0,1,2.092.542,1.966,1.966,0,0,1,.676,1.632,2.044,2.044,0,0,1-1.547,2.063L42.082-1.61H41.025l-1.863-3.2Zm0-.768h1.226a2.117,2.117,0,0,0,1.389-.376,1.4,1.4,0,0,0,.442-1.129,1.285,1.285,0,0,0-.45-1.1,2.437,2.437,0,0,0-1.445-.337H37.556Zm10.6,3.969L47.2-4.058H44.119L43.172-1.61h-.905l3.042-7.727h.753L49.087-1.61ZM46.924-4.863l-.895-2.384q-.174-.453-.358-1.111a9.972,9.972,0,0,1-.332,1.111l-.905,2.384ZM52.513-1.61h-.895v-6.9H49.182v-.795h5.768v.795H52.513Zm3.594,0v-7.7H57v7.7ZM65.79-5.468a4.237,4.237,0,0,1-.934,2.905,3.284,3.284,0,0,1-2.6,1.058,3.325,3.325,0,0,1-2.623-1.04,4.271,4.271,0,0,1-.924-2.934,4.218,4.218,0,0,1,.926-2.913A3.349,3.349,0,0,1,62.27-9.426a3.277,3.277,0,0,1,2.589,1.053A4.232,4.232,0,0,1,65.79-5.468Zm-6.131,0A3.652,3.652,0,0,0,60.325-3.1a2.362,2.362,0,0,0,1.934.808,2.339,2.339,0,0,0,1.931-.805,3.7,3.7,0,0,0,.653-2.374,3.674,3.674,0,0,0-.65-2.355,2.329,2.329,0,0,0-1.923-.8,2.374,2.374,0,0,0-1.945.808A3.615,3.615,0,0,0,59.659-5.468ZM73.516-1.61H72.5l-4.2-6.458h-.042q.084,1.137.084,2.084V-1.61h-.826v-7.7h1.01l4.194,6.432h.042q-.011-.142-.047-.913t-.026-1.1V-9.305h.837Z" transform="translate(-1.276 28.521)" fill="red"/>
      </g>
      <g id="Group_7246" data-name="Group 7246" transform="translate(0.182 -0.212)">
        <rect id="Rectangle_932" data-name="Rectangle 932" width="84.055" height="12.61" rx="2" transform="translate(5067 1278)" fill="red"/>
        <text id="SIGN_UP" data-name="SIGN UP" transform="translate(5100 1286)" fill="#fff" font-size="5" font-family="OpenSans, Open Sans"><tspan x="0" y="0">SIGN UP</tspan></text>
      </g>
      <g id="Group_7243" data-name="Group 7243" transform="translate(5067.264 1235.479)">
        <rect id="Rectangle_933" data-name="Rectangle 933" width="84.055" height="12.61" rx="2" fill="none" stroke="#2d2929" stroke-width="1"/>
        <g id="Group_7242" data-name="Group 7242" transform="translate(6.881 4.437)">
          <ellipse id="Ellipse_79" data-name="Ellipse 79" cx="1.751" cy="1.751" rx="1.751" ry="1.751" fill="red"/>
          <ellipse id="Ellipse_80" data-name="Ellipse 80" cx="1.751" cy="1.751" rx="1.751" ry="1.751" transform="translate(6.421)" fill="red"/>
          <ellipse id="Ellipse_81" data-name="Ellipse 81" cx="1.751" cy="1.751" rx="1.751" ry="1.751" transform="translate(12.842)" fill="red"/>
          <ellipse id="Ellipse_82" data-name="Ellipse 82" cx="1.751" cy="1.751" rx="1.751" ry="1.751" transform="translate(19.263)" fill="red"/>
          <ellipse id="Ellipse_83" data-name="Ellipse 83" cx="1.751" cy="1.751" rx="1.751" ry="1.751" transform="translate(25.684)" fill="red"/>
          <ellipse id="Ellipse_84" data-name="Ellipse 84" cx="1.751" cy="1.751" rx="1.751" ry="1.751" transform="translate(32.105)" fill="red"/>
        </g>
      </g>
      <g id="Group_7245" data-name="Group 7245" transform="translate(5067.264 1256.114)">
        <rect id="Rectangle_934" data-name="Rectangle 934" width="84.055" height="12.61" rx="2" fill="none" stroke="#2d2929" stroke-width="1"/>
        <g id="Group_7244" data-name="Group 7244" transform="translate(7.257 4.554)">
          <ellipse id="Ellipse_85" data-name="Ellipse 85" cx="1.751" cy="1.751" rx="1.751" ry="1.751" fill="red"/>
          <ellipse id="Ellipse_86" data-name="Ellipse 86" cx="1.751" cy="1.751" rx="1.751" ry="1.751" transform="translate(6.421)" fill="red"/>
          <ellipse id="Ellipse_87" data-name="Ellipse 87" cx="1.751" cy="1.751" rx="1.751" ry="1.751" transform="translate(12.842)" fill="red"/>
          <ellipse id="Ellipse_88" data-name="Ellipse 88" cx="1.751" cy="1.751" rx="1.751" ry="1.751" transform="translate(19.263)" fill="red"/>
          <ellipse id="Ellipse_89" data-name="Ellipse 89" cx="1.751" cy="1.751" rx="1.751" ry="1.751" transform="translate(25.684)" fill="red"/>
          <ellipse id="Ellipse_90" data-name="Ellipse 90" cx="1.751" cy="1.751" rx="1.751" ry="1.751" transform="translate(32.105)" fill="red"/>
        </g>
      </g>
      <path id="Path_18150" data-name="Path 18150" d="M377.054,372.1v14.667h-28.18l-9.523-7.112c-9.353-2.917-21.589-5.367-25.129-8.621s-11.224-11.29-11.366-13.1a39.215,39.215,0,0,0-2.384-10.277c-1.493-3.536-3.637-6.046-1.912-5.814a12.184,12.184,0,0,1,7.355,5.387c1.957,3.255,2.38,5.533,4.658,6.693,2.246,1.143,9.812,3.991,10.048,4.077l-.557-.928-9.89-25.384S293.74,319.1,293.036,314.777s-.146-6.559,1.53-5.354,10.012,9.805,12.383,10.591,8.519,4.687,9.637,6.546c1.082,1.8,4.141,6.363,4.333,6.648l-3.682-7.669-2.75-2.462s5.118-1.5,8-.382c2.567.989,6.851,8.137,7.758,9.687l-4.874-8.577s4.975-1.725,7.4-.334c1.574.907,3.433,4.3,4.54,6.563-.871-2.038-1.879-4.882-.911-5.265,1.534-.606,4.975-.146,7.168,2.966s10.3,19.757,13.006,24.778,3.873,9.065,8.25,12.133C366.331,365.7,371.253,368.67,377.054,372.1Z" transform="translate(4794.124 975.138)" fill="#f5efef" stroke="#2d2929" stroke-width="2"/>
    </g>
  </g>
</svg>
