<svg xmlns="http://www.w3.org/2000/svg" width="512.562" height="513.641" viewBox="0 0 512.562 513.641">
  <g id="phone-call" transform="translate(-0.539)">
    <g id="Group_5533" data-name="Group 5533">
      <path id="Path_7076" data-name="Path 7076" d="M499.66,376.96l-71.68-71.68c-25.6-25.6-69.12-15.359-79.36,17.92-7.68,23.041-33.28,35.841-56.32,30.72-51.2-12.8-120.32-79.36-133.12-133.12-7.68-23.041,7.68-48.641,30.72-56.32,33.28-10.24,43.52-53.76,17.92-79.36L136.14,13.44c-20.48-17.92-51.2-17.92-69.12,0L18.38,62.08c-48.64,51.2,5.12,186.88,125.44,307.2s256,176.641,307.2,125.44l48.64-48.64C517.581,425.6,517.581,394.88,499.66,376.96Z" fill="red"/>
    </g>
  </g>
</svg>
