<?xml version="1.0" encoding="UTF-8"?> <svg xmlns="http://www.w3.org/2000/svg" width="197" height="149" viewBox="0 0 197 149"><g id="Group_472" data-name="Group 472" transform="translate(-1503 889)"><rect id="Rectangle_39" data-name="Rectangle 39" width="197" height="149" rx="2" transform="translate(1503 -889)" fill="#fff"></rect><g id="Group_454" data-name="Group 454" transform="translate(626 -1833)"><path id="Path_270" data-name="Path 270" d="M322.862,237.93v-21.2h3.6v1.7a5.8,5.8,0,0,1,4.728-2.11c4.142,0,7.112,3.3,7.112,8.03s-2.989,8.089-7.112,8.089a5.8,5.8,0,0,1-4.728-2.149v7.64h-3.6Zm3.6-15.533V226.3a4.447,4.447,0,0,0,4.1,2.735c2.384,0,3.986-1.778,3.986-4.709,0-2.892-1.6-4.65-3.986-4.65a4.4,4.4,0,0,0-4.1,2.716" transform="translate(672.668 789.71)" fill="#02aa7c"></path><path id="Path_271" data-name="Path 271" d="M381.415,228.531a4.515,4.515,0,0,1,4.259-4.709l6.116-.782v-.762a1.229,1.229,0,0,0-1.329-1.407h-7.679v-3.263H390.6c3.107,0,4.807,1.524,4.807,4.221v11.039h-3.634v-1.856a5.887,5.887,0,0,1-5.041,2.325c-3.165,0-5.315-1.934-5.315-4.807m6.194,1.875a4.475,4.475,0,0,0,4.162-2.56v-1.915l-4.67.645c-1.289.176-2.013.86-2.013,1.973,0,1.192.918,1.856,2.521,1.856" transform="translate(631.876 788.812)" fill="#02aa7c"></path><path id="Path_272" data-name="Path 272" d="M434.6,235.564h2.618a1.66,1.66,0,0,0,1.778-1.348l.469-1.348-5.549-15.26h3.752l3.458,10.629h.078l3.3-10.629H448.2l-6.077,17.526c-.82,2.4-1.915,3.693-4.592,3.693H434.6v-3.263Z" transform="translate(595.302 788.812)" fill="#02aa7c"></path><path id="Path_273" data-name="Path 273" d="M44.189,229.98c4.181,0,7.62-1.309,9.887-3.5a9.063,9.063,0,0,0,2.7-6.565,8.5,8.5,0,0,0-2.5-6.116,13.067,13.067,0,0,0-6.878-3.38l-4.807-.938c-1.993-.371-3.126-1.368-3.126-2.755,0-1.817,1.758-3.068,4.572-3.068a5.933,5.933,0,0,1,4.259,1.563,4.73,4.73,0,0,1,1.192,2.56l6.936-1.563a8.564,8.564,0,0,0-2.559-5.2,14.011,14.011,0,0,0-9.906-3.673,13.557,13.557,0,0,0-9.2,3.243,9.127,9.127,0,0,0-2.931,6.76,7.774,7.774,0,0,0,2.247,5.744,13.691,13.691,0,0,0,6.565,3.321l4.748,1.133c2.384.567,3.439,1.446,3.439,3.009,0,1.934-1.758,3.068-4.631,3.068a6.431,6.431,0,0,1-4.807-1.817,4.365,4.365,0,0,1-1.251-2.872L31,220.5a8.918,8.918,0,0,0,2.7,5.51,14.471,14.471,0,0,0,10.492,3.966m52.794,0a14.832,14.832,0,0,0,10.629-4.064,13.9,13.9,0,0,0,3.752-6.311l-7.307-2.442a6.942,6.942,0,0,1-1.934,3.243,7.106,7.106,0,0,1-5.139,1.934,7.908,7.908,0,0,1-5.569-2.247,9.065,9.065,0,0,1-2.325-6.448,8.966,8.966,0,0,1,2.325-6.448,7.606,7.606,0,0,1,5.51-2.188,6.63,6.63,0,0,1,4.943,1.876,7.961,7.961,0,0,1,1.876,3.321l7.444-2.5a14.23,14.23,0,0,0-3.5-6.194,15.222,15.222,0,0,0-10.942-4.181A15.8,15.8,0,0,0,85.435,201.9a17.1,17.1,0,0,0,.117,23.525,15.973,15.973,0,0,0,11.43,4.552m-25.264,0a10.45,10.45,0,0,0,6.565-1.876v-6.76a7.222,7.222,0,0,1-4.2,1.251,3.507,3.507,0,0,1-4.064-4.123V189.848H61.754v8.441h16.51V206.3H61.754v14.2a9.554,9.554,0,0,0,2.442,6.819,10.465,10.465,0,0,0,7.522,2.657" transform="translate(876 808.152)" fill="#502c84"></path></g></g></svg> 