<svg xmlns="http://www.w3.org/2000/svg" width="469.334" height="386.4" viewBox="0 0 469.334 386.4">
  <g id="old-typical-phone" transform="translate(0 -4.542)">
    <g id="Group_5519" data-name="Group 5519" transform="translate(0 4.542)">
      <path id="Path_7068" data-name="Path 7068" d="M236.823,75.125c79.082.776,128.624-4.144,135.315,83.509h96.436c0-135.79-118.427-154.093-234.261-154.093S.052,22.845.052,158.635H95.739C103.143,69.31,158.4,74.358,236.823,75.125Z" transform="translate(0.423 -4.542)" fill="red"/>
      <path id="Path_7069" data-name="Path 7069" d="M48.3,55.158c23.488,0,43.033,1.406,47.378-21.7A58.96,58.96,0,0,0,96.6,22.642H0C0,57.012,21.626,55.158,48.3,55.158Z" transform="translate(0 142.588)" fill="red"/>
      <path id="Path_7070" data-name="Path 7070" d="M41.685,22.642h-.9A51.6,51.6,0,0,0,41.8,33.46c4.583,21.306,24.1,19.983,47.506,19.983,26.8,0,48.528,1.762,48.528-30.8H41.685Z" transform="translate(331.497 142.588)" fill="red"/>
      <path id="Path_7071" data-name="Path 7071" d="M295.87,38.018V24.362c0-6.107-7.038-6.491-15.729-6.491h-14.2c-8.681,0-15.72.383-15.72,6.491v20.9H149.811v-20.9c0-6.107-7.038-6.491-15.72-6.491h-14.2c-8.681,0-15.72.383-15.72,6.491V49.94C81.291,73.711,6.435,174.9,3.715,187.154L3.752,268.9a13.71,13.71,0,0,0,13.693,13.693H382.593A13.71,13.71,0,0,0,396.286,268.9V186.743C393.593,174.848,318.756,73.7,295.87,49.931ZM144.863,198.154a13.31,13.31,0,1,1,13.31-13.31A13.307,13.307,0,0,1,144.863,198.154Zm0-45.644a13.31,13.31,0,1,1,13.31-13.31A13.307,13.307,0,0,1,144.863,152.51Zm0-45.634a13.31,13.31,0,1,1,13.31-13.31A13.307,13.307,0,0,1,144.863,106.876Zm54.772,91.278a13.31,13.31,0,1,1,13.31-13.31A13.307,13.307,0,0,1,199.635,198.154Zm0-45.644a13.31,13.31,0,1,1,13.31-13.31A13.307,13.307,0,0,1,199.635,152.51Zm0-45.634a13.31,13.31,0,1,1,13.31-13.31A13.307,13.307,0,0,1,199.635,106.876Zm54.772,91.278a13.31,13.31,0,1,1,13.31-13.31A13.3,13.3,0,0,1,254.408,198.154Zm0-45.644a13.31,13.31,0,1,1,13.31-13.31A13.3,13.3,0,0,1,254.408,152.51Zm0-45.634a13.31,13.31,0,1,1,13.31-13.31A13.3,13.3,0,0,1,254.408,106.876Z" transform="translate(30.198 103.806)" fill="red"/>
    </g>
  </g>
</svg>
