<svg xmlns="http://www.w3.org/2000/svg" width="65" height="65" viewBox="0 0 65 65">
  <g id="Twitter" transform="translate(6036 9630)">
    <g id="Group_8366" data-name="Group 8366" transform="translate(77)" opacity="0">
      <g id="Group_8363" data-name="Group 8363" transform="translate(188)">
        <circle id="Ellipse_79" data-name="Ellipse 79" cx="32.5" cy="32.5" r="32.5" transform="translate(-6301 -9630)" fill="#fff"/>
      </g>
    </g>
    <path id="Path_19681" data-name="Path 19681" d="M31.378-36.64A15.778,15.778,0,0,0,35-40.4a15.419,15.419,0,0,1-4.1,1.162A7.124,7.124,0,0,0,34.044-43.2a14.6,14.6,0,0,1-4.58,1.709,8.119,8.119,0,0,0-2.358-1.641A6.848,6.848,0,0,0,24.2-43.75a6.933,6.933,0,0,0-3.555.957,7.025,7.025,0,0,0-2.6,2.632,7.117,7.117,0,0,0-.957,3.589,9.964,9.964,0,0,0,.137,1.641A19.87,19.87,0,0,1,8.99-37.119a19.794,19.794,0,0,1-6.529-5.332,6.872,6.872,0,0,0-1.025,3.589,6.9,6.9,0,0,0,.889,3.452,7.963,7.963,0,0,0,2.324,2.6,6.758,6.758,0,0,1-3.213-.957v.137a6.882,6.882,0,0,0,1.641,4.512,7.232,7.232,0,0,0,4.1,2.529,9.112,9.112,0,0,1-1.914.205q-.615,0-1.3-.068a7.139,7.139,0,0,0,2.5,3.521,6.677,6.677,0,0,0,4.2,1.4,14.231,14.231,0,0,1-8.955,3.076q-.957,0-1.709-.068a19.916,19.916,0,0,0,11.006,3.213,19.723,19.723,0,0,0,11.143-3.213,19.523,19.523,0,0,0,6.9-7.725,20.27,20.27,0,0,0,2.393-9.5A4.073,4.073,0,0,0,31.378-36.64Z" transform="translate(-6021 -9567.969)" fill="red"/>
  </g>
</svg>
