<?xml version="1.0" encoding="UTF-8"?> <svg xmlns="http://www.w3.org/2000/svg" width="197" height="149" viewBox="0 0 197 149"><g id="Group_469" data-name="Group 469" transform="translate(-2035 869)"><rect id="Rectangle_41" data-name="Rectangle 41" width="197" height="149" rx="2" transform="translate(2035 -869)" fill="#fff"></rect><g id="Group_448" data-name="Group 448" transform="translate(820 -1823)"><path id="Path_280" data-name="Path 280" d="M20.642,9H45.675c3.494,0,5.668,2.943,4.853,6.567l-11.655,51.7a8.576,8.576,0,0,1-7.818,6.556H6.024A4.85,4.85,0,0,1,1,68.863a6.68,6.68,0,0,1,.171-1.6l11.66-51.7A8.554,8.554,0,0,1,20.642,9" transform="translate(1263 987)" fill="#e21836"></path><path id="Path_281" data-name="Path 281" d="M31.528,9H60.634c3.58,0,1.966,2.943,1.124,6.567L49.815,67.27c-.838,3.609-.577,6.554-4.166,6.554H16.143A4.891,4.891,0,0,1,11,68.971a6.623,6.623,0,0,1,.175-1.7l12.34-51.7C24.369,11.943,27.546,9,31.131,9" transform="translate(1274.609 987)" fill="#00447c"></path><path id="Path_282" data-name="Path 282" d="M44.037,9H68.672a4.79,4.79,0,0,1,4.9,3.831,5.978,5.978,0,0,1,.127,1.394,6.854,6.854,0,0,1-.171,1.34l-11.653,51.7a8.582,8.582,0,0,1-7.824,6.556H29.026A4.832,4.832,0,0,1,24,68.982a6.673,6.673,0,0,1,.169-1.711l12.053-51.7A8.554,8.554,0,0,1,44.037,9Z" transform="translate(1289.7 987)" fill="#007b84"></path><path id="Path_283" data-name="Path 283" d="M34.877,20.574a2.891,2.891,0,0,0-2.813.292c-.856.568-.972,1.374-.272,1.8a2.891,2.891,0,0,0,2.8-.3C35.443,21.791,35.571,20.991,34.877,20.574Zm49.578,2.72-2.53,4.425-.568-5.238-2.679.635.981,8.563L76.6,36.636a.548.548,0,0,1-.257.231,1.061,1.061,0,0,1-.454.065H75.8l-.657,2.025,1.621,0a2.649,2.649,0,0,0,2.36-1.351l8.985-15.126ZM40.912,35.447l-.873,1.515a1.253,1.253,0,0,1-1.217.646h-.434L37.779,39.5h1.443a3.368,3.368,0,0,0,2.5-.931h4.507l.65-2.016H43.1l.605-1.1ZM15.542,24.395a7.322,7.322,0,0,1-1.467,3.425,2.826,2.826,0,0,1-1.994.756A1.734,1.734,0,0,1,10.173,26.8a2.242,2.242,0,0,1,.03-.257c.523-2.911,2.8-10.54,2.8-10.54H8.755l-2.2,8.708A19.368,19.368,0,0,0,6,27.688a3.392,3.392,0,0,0,.354,1.7c.812,1.48,3.215,1.742,4.59,1.742,2.351,0,3.74-.225,4.877-.916,1.813-1.1,2.338-2.593,2.9-4.7C19.35,23.141,21.126,16,21.126,16H17.679S15.545,24.39,15.542,24.395Zm7.1,6.731,1.523-6.2a2.593,2.593,0,0,1,.962-.283.791.791,0,0,1,.858.849c-.03.294-1.275,5.633-1.275,5.633h3.034L28.8,26.657c.441-1.651.663-2.489.382-3.172a1.724,1.724,0,0,0-1.742-1,5.527,5.527,0,0,0-2.044.506c-.274.132-.534.285-.808.436l.223-.946-3.226.506-2.083,8.142Zm25.66,0,1.523-6.2a2.593,2.593,0,0,1,.962-.283.791.791,0,0,1,.858.849c-.03.294-1.275,5.633-1.275,5.633H53.4l1.061-4.469c.441-1.651.663-2.489.382-3.172a1.724,1.724,0,0,0-1.742-1,5.527,5.527,0,0,0-2.044.506c-.274.132-.534.285-.808.436l.223-.946-3.226.506-2.083,8.142Zm-18.531,0H32.9l1.621-6.482-3.211.475ZM69.58,17.34c-.895-1.3-2.742-1.329-4.877-1.34H59.644L55.7,31.126h3.412l1.437-5.4h.635c2.176,0,4.261-.03,6.07-1.335a6.647,6.647,0,0,0,2.653-3.8,6.051,6.051,0,0,0,.207-1.368A3.315,3.315,0,0,0,69.58,17.34Zm-3.634,3.392A3.428,3.428,0,0,1,64.169,23a5.519,5.519,0,0,1-2.431.294h-.545l1.366-5.132H63.9a1.864,1.864,0,0,1,2.131,1.891A2.863,2.863,0,0,1,65.945,20.732ZM54.554,44.09s-.162.473-.214.633a.685.685,0,0,1-.707.447h-.905V44.09H50.3v5.4c-.015.4.387,1.08,2.156,1.08h2.014l.618-1.893-1.815,0c-.54,0-.529-.251-.536-.648-.006-.432-.006-1.242-.006-1.242h1.716a2.055,2.055,0,0,0,2.044-1.7l.236-1Z" transform="translate(1268.805 995.126)" fill="#fefefe"></path><path id="Path_284" data-name="Path 284" d="M39.5,31.965c-3.246,0-3.879,1.448-3.879,1.448l.445-1.448H33.455L29.178,45.109a2.169,2.169,0,0,0-.1.646c.013.609.376,1.335,2.083,1.335l1.551,0L33.4,44.93H32.357c-.339,0-.27-.281-.27-.281L33.619,40h3.842c3.176,0,3.766-1.945,4.052-2.831l1.694-5.2Zm-1.137,6.482H34.042l.445-1.305H38.82Zm1.132-3.2s-2.187-.022-2.539.043a3.645,3.645,0,0,0-2.2,1.1l.73-2.26h4.371ZM58.265,19.506l-.061.24A2.3,2.3,0,0,0,56.452,19a4.624,4.624,0,0,0-3.133,1.333,5.973,5.973,0,0,0-1.752,3.109,6.639,6.639,0,0,0-.179,1.5,2.558,2.558,0,0,0,2.906,2.7,3.354,3.354,0,0,0,2.085-.75c-.069.266-.2.75-.2.75h3.135L61.491,19ZM55.22,25.733a.832.832,0,0,1-.927-.888,6.159,6.159,0,0,1,.27-1.493c.367-1.314.862-2.461,2.161-2.461,1.016,0,1,.815.562,2.448a7.474,7.474,0,0,1-.752,1.729A1.378,1.378,0,0,1,55.22,25.733ZM28.578,20.065A3.784,3.784,0,0,0,25.548,19a5.988,5.988,0,0,0-3.881,1.251,6.04,6.04,0,0,0-1.8,3.131c-.307,1.134-.683,3.179,1.288,3.941a6.038,6.038,0,0,0,2.064.32,5.736,5.736,0,0,0,4.123-1.5,6.851,6.851,0,0,0,1.48-2.831C29.325,21.459,29,20.593,28.578,20.065Zm-5.054,5.666a.832.832,0,0,1-.927-.888,6.249,6.249,0,0,1,.27-1.493c.365-1.236.864-2.461,2.161-2.461,1.016,0,1,.815.562,2.448a7.474,7.474,0,0,1-.752,1.729A1.37,1.37,0,0,1,23.524,25.731Zm-1.258,10.8-.629,1.912h1.828l-.536,1.662H21.1l-.661,2.025h1.826L21.1,45.675c-.156.469-.162,1.413,1.595,1.413h3.516l.7-2.159H24.366c-.54,0-.4-.382-.4-.382l.8-2.446h3.773l.653-1.99H25.416l.551-1.664h3.7l.642-1.912ZM63,38.266l.648-1.979H54.929l-.635,1.979H56.91l-.534,1.605H53.714l-.568,1.755h2.338L53.4,44.359a1.314,1.314,0,0,1-1.1.57h-1.05l.205-.624h-.9l3.325-10.18h1.182l.372-1.119v1.117c0,.938.27,1.353,1.774,1.353h1.033l.655-2.02h-.482c-.318.006-.469-.1-.443-.3V31.965h-2.7a24.392,24.392,0,0,0-4.739.285,8.558,8.558,0,0,0-1.744.771l.339-1.057H46.322L42.3,44.329h-.605l-.687,2.092h6.21L47,47.09h2.656l.216-.67h.869l-.227.67h2.2a2.784,2.784,0,0,0,1.387-.335,3.087,3.087,0,0,0,.966-.879L56.7,43.7l.249,2.28c.063.415.223,1.108,1.927,1.108h1.227l.711-2.161h-.8a.682.682,0,0,1-.728-.642L59,42.075H57.673l.54-.449h3.68l.579-1.755H59.047l.542-1.605Zm-14.555-4.14h2.816l-.6,1.843a13.047,13.047,0,0,0-1.5.173,8.244,8.244,0,0,0-1.556.536Zm-.508,10.2H45.119l.75-2.3h2.816Zm1.467-4.538s-.748.093-1.24.205c-.862.248-1.847.612-1.847.612l.864-2.632h2.826Z" transform="translate(1284.62 998.608)" fill="#fefefe"></path></g></g></svg> 